<?xml version="1.0" encoding="utf-8"?>
<!-- Generator: Adobe Illustrator 24.0.2, SVG Export Plug-In . SVG Version: 6.00 Build 0)  -->
<svg version="1.1" id="Capa_1" xmlns="http://www.w3.org/2000/svg" xmlns:xlink="http://www.w3.org/1999/xlink" x="0px" y="0px"
	 viewBox="0 0 614.5 512" style="enable-background:new 0 0 614.5 512;" xml:space="preserve">
<g>
	<path d="M614.8,478.4c-0.4-17.9-6.6-33.7-19-46.6c-4.5-4.7-5.8-9.4-5.8-15.5c0.2-51.9,0.1-103.8,0.1-155.6c0-42,0.1-83.9-0.1-125.9
		c-0.1-16.5-11.4-29.2-27.3-29.5c-29.4-0.6-36.1-0.3-65.5-0.2c-7.4,0-12.4,5.2-11.6,11.3c1,6.9,5.5,9.7,12.3,9.7
		c26.2,0,29.6,0,55.8,0.1c13.6,0,15.4,1.8,15.4,15.8c0,81.6,0.1,163.2,0.1,244.8c0,8.4,0,16.7,0,23.4c-85.5-3.3-170-1.2-254.4-1.4
		c-84.5-0.3-169-0.1-254.9-0.1c0-3.6,0-6.8,0-9.9c0-32.7,0-65.4,0-98.1c0-53.3,0-106.7,0-160c0-12.9,1.6-14.4,14.7-14.5
		c24.8,0,28.6,0,53.3,0c7.1,0,12.3-3,12.3-10.5c0-7.5-5.1-10.6-12.2-10.6c-2,0-4.1,0-6.1,0c-22.7,0-24.5,0-47.2,0
		c-25.6,0-36.1,10.3-36,36.1c0.3,59.4,0.8,118.8,1,178.3c0.1,29.3-0.8,58.5-0.8,87.8c0,6.7-1.6,11-7.6,15.1
		C13,434.6,3.1,452.6,1.1,474.7c-2.1,22.8,11.4,37.3,34.4,37.3c74.3,0,255.2,0,334.5,0c2,0,4,0,6,0c1.9,0.1,4.1,0.5,5.6,0
		c11.4,0,22.8,0,34.2,0c55.4,0,110.7,0.1,166.1,0C602.5,512,615.3,498.9,614.8,478.4z M578.9,490.9c-39.6,0-471.7-0.1-541.6-0.2
		c-13.2,0-17.3-5.1-14.7-17.9c5.3-26.9,24.9-42.9,52.6-42.9c155.1,0,310.1,0,465.2,0c27.9,0,47.1,15.6,52.9,42.6
		C596,485.2,591.8,490.9,578.9,490.9z"/>
	<path d="M163.5,45c0-29.1,15.8-44.9,44.9-44.9c47.5-0.1,95,0.1,142.4-0.1c7.3,0,12.6,2.4,17.6,7.6c21.4,22.6,42,46.3,65.2,66.9
		c20.5,18.2,27.6,38,26.7,65.4c-2.1,65.8-0.6,131.7-0.7,197.5c0,26.8-16.8,43.7-43.6,43.8c-5.5,0-11-0.4-16.6-0.4
		c-63.8,0.1-127.6,0.3-191.3,0.4c-28.1,0-44.6-16.5-44.7-44.4c0-48.4,0-96.7,0-145.1C163.4,142.5,163.4,94.3,163.5,45z M398.9,116.6
		c-17.6,0.4-33.9-2.6-44.1-18.4c-4.6-7.2-8.5-16-9.2-24.4c-1.4-16.2-0.4-32.5-0.4-50.7c-7.5,0-14.3,0-21.1,0
		c-38.2,0-76.3,0.1-114.5,0.2c-17,0-22.7,5.6-22.7,22.4c0,96.7,0,193.4,0,290.1c0,16,6.1,22.2,22.2,22.3c68.4,0.1,136.9,0.1,205.3,0
		c15.5,0,21.6-6.3,21.6-21.8c0-69.9,0-139.8,0-209.7c0-2.9,0-5.7,0-9.9C422.7,116.6,410.8,116.3,398.9,116.6z M368.8,38.7
		c-1.1,0.3-2.2,0.5-3.3,0.8c1,14.4,1.1,29,3.2,43.3c1.2,7.9,8.5,11.8,16.3,12.1c11.6,0.4,23.2,0.1,37.8,0.1
		C403.6,74.9,386.2,56.8,368.8,38.7z"/>
</g>
</svg>
