<svg aria-hidden="true" style="position: absolute; width: 0; height: 0; overflow: hidden;" version="1.1" xmlns="http://www.w3.org/2000/svg" xmlns:xlink="http://www.w3.org/1999/xlink">
<defs>


  <symbol id="icon-graded" viewBox=" 0 0 951.5 512">
    <title>Teacher graded 100%</title>
    <g>
      <path d="M447.9,431.9h-28.7V316.6c0-13.8,0.3-24.7,1-32.7c-1.9,2-4.2,4.1-6.9,6.5c-2.7,2.4-11.9,9.8-27.4,22.5l-14.4-18.2
        l52.5-41.3h23.9V431.9z"/>
      <path d="M602.4,342.6c0,31-5,54-15,69.1c-10,15.1-25.2,22.6-45.7,22.6c-19.9,0-34.9-7.8-45.2-23.3c-10.3-15.5-15.4-38.3-15.4-68.4
        c0-31.5,5-54.7,15-69.6c10-14.9,25.2-22.4,45.6-22.4c19.9,0,35,7.8,45.3,23.4S602.4,312.5,602.4,342.6z M510.2,342.6
        c0,24.3,2.5,41.7,7.5,52.1c5,10.4,13,15.6,24,15.6s19-5.3,24.1-15.9c5.1-10.6,7.6-27.9,7.6-51.9c0-23.9-2.5-41.2-7.6-51.9
        c-5.1-10.7-13.1-16.1-24.1-16.1s-19,5.2-24,15.7C512.7,300.9,510.2,318.3,510.2,342.6z"/>
      <path d="M735,342.6c0,31-5,54-15,69.1c-10,15.1-25.2,22.6-45.7,22.6c-19.9,0-34.9-7.8-45.2-23.3c-10.3-15.5-15.4-38.3-15.4-68.4
        c0-31.5,5-54.7,15-69.6c10-14.9,25.2-22.4,45.6-22.4c19.9,0,35,7.8,45.3,23.4S735,312.5,735,342.6z M642.8,342.6
        c0,24.3,2.5,41.7,7.5,52.1c5,10.4,13,15.6,24,15.6s19-5.3,24.1-15.9c5.1-10.6,7.6-27.9,7.6-51.9c0-23.9-2.5-41.2-7.6-51.9
        c-5.1-10.7-13.1-16.1-24.1-16.1s-19,5.2-24,15.7C645.3,300.9,642.8,318.3,642.8,342.6z"/>
      <path d="M834.7,306.6c0,18.7-3.4,32.8-10.1,42.2c-6.7,9.4-16.6,14.1-29.7,14.1c-12.4,0-22-4.9-28.7-14.6
        c-6.8-9.7-10.2-23.6-10.2-41.7c0-37.2,13-55.8,38.9-55.8c12.8,0,22.6,4.8,29.5,14.5C831.3,275,834.7,288.7,834.7,306.6z
        M779.8,306.9c0,12.1,1.2,21.2,3.5,27.1c2.4,5.9,6.2,8.9,11.6,8.9c10.7,0,16.1-12,16.1-36c0-24-5.4-36-16.1-36
        c-5.4,0-9.2,3-11.6,8.9C781,285.7,779.8,294.8,779.8,306.9z M914.7,253.4l-99,178.5H792l99-178.5H914.7z M951,378.2
        c0,18.7-3.4,32.8-10.1,42.1c-6.8,9.4-16.6,14-29.5,14c-12.4,0-22-4.8-28.8-14.5c-6.8-9.6-10.3-23.5-10.3-41.7
        c0-37.2,13-55.8,39.1-55.8c12.5,0,22.3,4.8,29.2,14.4C947.5,346.4,951,360.2,951,378.2z M896,378.2c0,12.1,1.2,21.2,3.6,27.2
        c2.4,6,6.3,9,11.7,9c10.7,0,16-12.1,16-36.3c0-23.8-5.3-35.8-16-35.8c-5.4,0-9.3,2.9-11.7,8.8S896,366,896,378.2z"/>
    </g>
    <path d="M417.5,445.7V472c0,4.3-3.7,8-8,8h-304c-4.3,0-8-3.7-8-8V104c0-4.3,3.7-8,8-8c0,0,184,0,184,0v112c0,8.8,7.2,16,16,16h112
      v16h32v-16c0-7.2-2.2-19.7-21.1-45.5c-11.1-15.1-26.6-32.8-43.6-49.9c-17-17-34.7-32.5-49.9-43.6C309.2,66.2,296.7,64,289.5,64h-184
      c-22.1,0-40,17.9-40,40v368c0,22.1,17.9,40,40,40h304c22.1,0,40-17.9,40-40v-26.2C449.6,445.9,417.5,445.8,417.5,445.7z M321.5,115
      c11.5,8.9,25.3,20.9,40.7,36.3h0c15.4,15.4,27.4,29.2,36.3,40.7h-77V115z"/>
    <path d="M271,21.1C245.2,2.2,232.7,0,225.5,0h-184c-22.1,0-40,17.9-40,40v368c0,19.3,13.8,35.5,32,39.2V40c0-4.3,3.7-8,8-8H285
      C280.2,28,275.5,24.4,271,21.1L271,21.1z"/>
    <path d="M264.5,385.5v-15.5c20.6-11.6,37.5-40.6,37.5-69.6c0-46.6,0-84.3-56.2-84.3s-56.2,37.8-56.2,84.3c0,29,16.8,58,37.5,69.6
      v15.5c-63.6,5.2-112.4,36.4-112.4,74.2h262.4C376.9,422,328.1,390.7,264.5,385.5L264.5,385.5z"/>
  </symbol>
  <symbol id="icon-evaluated" viewBox="0 0 951.5 512">
      <title>All graded 100%</title>
      <g>
      <g>
        <path d="M447.9,431.9h-28.7V316.6c0-13.8,0.3-24.7,1-32.7c-1.9,2-4.2,4.1-6.9,6.5c-2.7,2.4-11.9,9.8-27.4,22.5l-14.4-18.2
          l52.5-41.3h23.9V431.9z"/>
        <path d="M602.4,342.6c0,31-5,54-15,69.1c-10,15.1-25.2,22.6-45.7,22.6c-19.9,0-34.9-7.8-45.2-23.3c-10.3-15.5-15.4-38.3-15.4-68.4
          c0-31.5,5-54.7,15-69.6c10-14.9,25.2-22.4,45.6-22.4c19.9,0,35,7.8,45.3,23.4S602.4,312.5,602.4,342.6z M510.2,342.6
          c0,24.3,2.5,41.7,7.5,52.1c5,10.4,13,15.6,24,15.6s19-5.3,24.1-15.9c5.1-10.6,7.6-27.9,7.6-51.9c0-23.9-2.5-41.2-7.6-51.9
          c-5.1-10.7-13.1-16.1-24.1-16.1s-19,5.2-24,15.7C512.7,300.9,510.2,318.3,510.2,342.6z"/>
        <path d="M735,342.6c0,31-5,54-15,69.1c-10,15.1-25.2,22.6-45.7,22.6c-19.9,0-34.9-7.8-45.2-23.3c-10.3-15.5-15.4-38.3-15.4-68.4
          c0-31.5,5-54.7,15-69.6c10-14.9,25.2-22.4,45.6-22.4c19.9,0,35,7.8,45.3,23.4S735,312.5,735,342.6z M642.8,342.6
          c0,24.3,2.5,41.7,7.5,52.1c5,10.4,13,15.6,24,15.6s19-5.3,24.1-15.9c5.1-10.6,7.6-27.9,7.6-51.9c0-23.9-2.5-41.2-7.6-51.9
          c-5.1-10.7-13.1-16.1-24.1-16.1s-19,5.2-24,15.7C645.3,300.9,642.8,318.3,642.8,342.6z"/>
        <path d="M834.7,306.6c0,18.7-3.4,32.8-10.1,42.2c-6.7,9.4-16.6,14.1-29.7,14.1c-12.4,0-22-4.9-28.7-14.6
          c-6.8-9.7-10.2-23.6-10.2-41.7c0-37.2,13-55.8,38.9-55.8c12.8,0,22.6,4.8,29.5,14.5C831.3,275,834.7,288.7,834.7,306.6z
          M779.8,306.9c0,12.1,1.2,21.2,3.5,27.1c2.4,5.9,6.2,8.9,11.6,8.9c10.7,0,16.1-12,16.1-36c0-24-5.4-36-16.1-36
          c-5.4,0-9.2,3-11.6,8.9C781,285.7,779.8,294.8,779.8,306.9z M914.7,253.4l-99,178.5H792l99-178.5H914.7z M951,378.2
          c0,18.7-3.4,32.8-10.1,42.1c-6.8,9.4-16.6,14-29.5,14c-12.4,0-22-4.8-28.8-14.5c-6.8-9.6-10.3-23.5-10.3-41.7
          c0-37.2,13-55.8,39.1-55.8c12.5,0,22.3,4.8,29.2,14.4C947.5,346.4,951,360.2,951,378.2z M896,378.2c0,12.1,1.2,21.2,3.6,27.2
          c2.4,6,6.3,9,11.7,9c10.7,0,16-12.1,16-36.3c0-23.8-5.3-35.8-16-35.8c-5.4,0-9.3,2.9-11.7,8.8S896,366,896,378.2z"/>
      </g>
      <path d="M417.5,445.7V472c0,4.3-3.7,8-8,8h-304c-4.3,0-8-3.7-8-8V104c0-4.3,3.7-8,8-8c0,0,184,0,184,0v112c0,8.8,7.2,16,16,16h112
        v16h32v-16c0-7.2-2.2-19.7-21.1-45.5c-11.1-15.1-26.6-32.8-43.6-49.9c-17-17-34.7-32.5-49.9-43.6C309.2,66.2,296.7,64,289.5,64
        h-184c-22.1,0-40,17.9-40,40v368c0,22.1,17.9,40,40,40h304c22.1,0,40-17.9,40-40v-26.2C449.6,445.9,417.5,445.8,417.5,445.7z
        M321.5,115c11.5,8.9,25.3,20.9,40.7,36.3h0c15.4,15.4,27.4,29.2,36.3,40.7h-77V115z"/>
      <path d="M271,21.1C245.2,2.2,232.7,0,225.5,0h-184c-22.1,0-40,17.9-40,40v368c0,19.3,13.8,35.5,32,39.2V40c0-4.3,3.7-8,8-8H285
        C280.2,28,275.5,24.4,271,21.1L271,21.1z"/>
      <path d="M323.2,260.4H157.1c-12.8,0-23.3,10.4-23.3,23.3V370c0,12.8,10.4,23.3,23.3,23.3h39.6c-2.8,1.1-5,3.5-5.8,6.5l-6.5,26.2
        c-0.4,1.7-1.3,3.2-2.5,4.4h0c-5.9,5.9-1.7,16.1,6.7,16.1h97.9c8.4,0,12.6-10.1,6.7-16.1h0c-1.2-1.2-2.1-2.7-2.5-4.4l-6.5-26.2
        c-0.8-3.1-3-5.4-5.8-6.5h44.9c12.8,0,23.3-10.4,23.3-23.3v-86.4C346.5,270.8,336.1,260.4,323.2,260.4z M314.5,363.8
        c0,2.7-2.2,5-5,5H168.3c-2.7,0-5-2.2-5-5v-73.1c0-2.7,2.2-5,5-5h141.2c2.7,0,5,2.2,5,5V363.8z"/>
    </g>
  </symbol>
  <symbol id="icon-view-dropdown" viewBox="0 0 1043.7 512">
    <title>View dropdown icon</title>
    <g>
      <path class="st0" d="M162.9,330.8c28,2.5,51.4-20.9,48.9-48.9c-1.9-21.5-19.2-38.8-40.7-40.7c-28-2.5-51.4,20.9-48.9,48.9
        C124.1,311.6,141.4,328.9,162.9,330.8z M165,271.1c9.8-1.2,18.1,7,16.8,16.8c-0.8,6.7-6.2,12.1-12.9,12.9
        c-9.8,1.2-18.1-7-16.8-16.8C153,277.4,158.4,272,165,271.1z"/>
      <path class="st0" d="M197,120l150.6,0c7.7,0,14.5-5.6,15.3-13.3c1-9-6.1-16.7-14.9-16.7l-150.6,0c-7.7,0-14.5,5.6-15.3,13.3
        C181.1,112.3,188.2,120,197,120z"/>
      <path class="st0" d="M483,436.2V450c0,17.7-14.3,32-32,32H184c-17.7,0-32-14.3-32-32v-59.9c4.9,0.6,9.9,0.9,15,0.9
        c5.1,0,10.1-0.3,15-0.9l30-6.7c66.8-22.1,114.6-85.2,117-88.5c4-5.3,4-12.6,0-17.9c-2.4-3.2-50.2-66.4-117-88.5l-30-6.7
        c-4.9-0.6-9.9-0.9-15-0.9c-5.1,0-10.1,0.3-15,0.9V62c0-17.7,14.3-32,32-32h209v75c0,8.3,6.7,15,15,15h75v51.5h30V105
        c0-4.1-1.7-7.9-4.4-10.6l-90-90c0,0,0,0,0,0C415.9,1.7,412.1,0,408,0H159c-20.4,0-37,16.6-37,37v151.5C55,210.6,6.5,273.7,4,276.9
        C0,282.3,0,289.7,4,295.1c2.4,3.2,51,66.4,118,88.4V477c0,19.3,15.7,35,35,35h323c18.2,0,33-14.8,33-33v-42.8H483z M423,51.2
        L461.8,90H423V51.2z M35.5,286c19.1-21.7,72.1-75,131.5-75c59.4,0,111.8,53.4,130.6,75c-32.3,37.4-80.8,75-130.6,75
        C107.6,361,54.6,307.7,35.5,286z"/>
    </g>
    <g>
      <path d="M546.2,208.5h30.3L514,387h-30.8L421,208.5h30l37.2,111c2,5.3,4,12.1,6.2,20.4c2.2,8.3,3.6,14.5,4.3,18.6
        c1.1-6.2,2.7-13.3,4.9-21.5c2.2-8.1,4-14.2,5.4-18.1L546.2,208.5z"/>
      <path d="M605.1,387V208.5h29.2V387H605.1z"/>
      <path d="M787.3,387h-101V208.5h101v24.7h-71.8v48.6h67.3v24.4h-67.3v56h71.8V387z"/>
      <path d="M995.6,387h-31.7l-30.3-106.4c-1.3-4.6-2.9-11.3-4.9-20.1c-2-8.7-3.1-14.8-3.5-18.3c-0.8,5.2-2.1,12-4,20.3
        c-1.8,8.3-3.4,14.5-4.6,18.6L887,387h-31.7l-23.1-89.4l-23.4-89.1h29.8l25.5,104c4,16.7,6.8,31.4,8.5,44.2c0.9-6.9,2.2-14.6,4-23.2
        c1.8-8.5,3.4-15.5,4.9-20.8l29.1-104.2h28.9l29.8,104.7c2.8,9.7,5.9,24.2,9,43.5c1.2-11.6,4.2-26.4,8.8-44.4l25.4-103.8h29.5
        L995.6,387z"/>
    </g>
  </symbol>

  <symbol id="icon-view-all" viewBox="0 0 864.9 512">
    <title>View All Icon</title>
    <path class="st0" d="M163.9,330.8c28,2.5,51.4-20.9,48.9-48.9c-1.9-21.5-19.2-38.8-40.7-40.7c-28-2.5-51.4,20.9-48.9,48.9
      C125.1,311.6,142.4,328.9,163.9,330.8z M166,271.1c9.8-1.2,18.1,7,16.8,16.8c-0.8,6.7-6.2,12.1-12.9,12.9c-9.8,1.2-18.1-7-16.8-16.8
      C154,277.4,159.4,272,166,271.1z"/>
    <path class="st0" d="M198,120l150.6,0c7.7,0,14.5-5.6,15.3-13.3c1-9-6.1-16.7-14.9-16.7l-150.6,0c-7.7,0-14.5,5.6-15.3,13.3
      C182.1,112.3,189.2,120,198,120z"/>
    <path class="st0" d="M484,436.2V450c0,17.7-14.3,32-32,32H185c-17.7,0-32-14.3-32-32v-59.9c4.9,0.6,9.9,0.9,15,0.9
      c5.1,0,10.1-0.3,15-0.9l30-6.7c66.8-22.1,114.6-85.2,117-88.5c4-5.3,4-12.6,0-17.9c-2.4-3.2-50.2-66.4-117-88.5l-30-6.7
      c-4.9-0.6-9.9-0.9-15-0.9c-5.1,0-10.1,0.3-15,0.9V62c0-17.7,14.3-32,32-32h209v75c0,8.3,6.7,15,15,15h75v51.5h30V105
      c0-4.1-1.7-7.9-4.4-10.6l-90-90c0,0,0,0,0,0C416.9,1.7,413.1,0,409,0H160c-20.4,0-37,16.6-37,37v151.5C56,210.6,7.5,273.7,5,276.9
      C1,282.3,1,289.7,5,295.1c2.4,3.2,51,66.4,118,88.4V477c0,19.3,15.7,35,35,35h323c18.2,0,33-14.8,33-33v-42.8H484z M424,51.2
      L462.8,90H424V51.2z M36.5,286c19.1-21.7,72.1-75,131.5-75c59.4,0,111.8,53.4,130.6,75c-32.3,37.4-80.8,75-130.6,75
      C108.6,361,55.6,307.7,36.5,286z"/>
    <path d="M556.3,387l-17.8-49.6h-68.2L452.8,387H422l66.8-179.2h31.7L587.3,387H556.3z M530.8,312.3L514,263.7
      c-1.2-3.3-2.9-8.4-5.1-15.4c-2.2-7-3.6-12.1-4.5-15.4c-2.2,10-5.4,21-9.6,32.8l-16.1,46.5H530.8z"/>
    <path d="M615.8,387V208.5H645V362h75.6v25H615.8z"/>
    <path d="M756.3,387V208.5h29.2V362h75.6v25H756.3z"/>
  </symbol>

  <symbol id="icon-view-0" viewBox="0 0 554.7 512">
    <title>View 0 score icon</title>
    <g>
      <path class="st0" d="M162.9,330.8c28,2.5,51.4-20.9,48.9-48.9c-1.9-21.5-19.2-38.8-40.7-40.7c-28-2.5-51.4,20.9-48.9,48.9
        C124.1,311.6,141.4,328.9,162.9,330.8z M165,271.1c9.8-1.2,18.1,7,16.8,16.8c-0.8,6.7-6.2,12.1-12.9,12.9
        c-9.8,1.2-18.1-7-16.8-16.8C153,277.4,158.4,272,165,271.1z"/>
      <path class="st0" d="M197,120l150.6,0c7.7,0,14.5-5.6,15.3-13.3c1-9-6.1-16.7-14.9-16.7l-150.6,0c-7.7,0-14.5,5.6-15.3,13.3
        C181.1,112.3,188.2,120,197,120z"/>
      <path class="st0" d="M483,436.2V450c0,17.7-14.3,32-32,32H184c-17.7,0-32-14.3-32-32v-59.9c4.9,0.6,9.9,0.9,15,0.9
        c5.1,0,10.1-0.3,15-0.9l30-6.7c66.8-22.1,114.6-85.2,117-88.5c4-5.3,4-12.6,0-17.9c-2.4-3.2-50.2-66.4-117-88.5l-30-6.7
        c-4.9-0.6-9.9-0.9-15-0.9c-5.1,0-10.1,0.3-15,0.9V62c0-17.7,14.3-32,32-32h209v75c0,8.3,6.7,15,15,15h75v51.5h30V105
        c0-4.1-1.7-7.9-4.4-10.6l-90-90c0,0,0,0,0,0C415.9,1.7,412.1,0,408,0H159c-20.4,0-37,16.6-37,37v151.5C55,210.6,6.5,273.7,4,276.9
        C0,282.3,0,289.7,4,295.1c2.4,3.2,51,66.4,118,88.4V477c0,19.3,15.7,35,35,35h323c18.2,0,33-14.8,33-33v-42.8H483z M423,51.2
        L461.8,90H423V51.2z M35.5,286c19.1-21.7,72.1-75,131.5-75c59.4,0,111.8,53.4,130.6,75c-32.3,37.4-80.8,75-130.6,75
        C107.6,361,54.6,307.7,35.5,286z"/>
    </g>
    <g>
      <path d="M553,297.8c0,31-5,54-15,69.1c-10,15.1-25.2,22.6-45.7,22.6c-19.9,0-34.9-7.8-45.2-23.3c-10.3-15.5-15.4-38.3-15.4-68.4
        c0-31.5,5-54.7,15-69.6c10-14.9,25.2-22.4,45.6-22.4c19.9,0,35,7.8,45.3,23.4S553,267.7,553,297.8z M460.8,297.8
        c0,24.3,2.5,41.7,7.5,52.1c5,10.4,13,15.6,24,15.6s19-5.3,24.1-15.9c5.1-10.6,7.6-27.9,7.6-51.9c0-23.9-2.5-41.2-7.6-51.9
        c-5.1-10.7-13.1-16.1-24.1-16.1s-19,5.2-24,15.7C463.3,256,460.8,273.4,460.8,297.8z"/>
    </g>
  </symbol>

  <symbol id="icon-view-under" viewBox="0 0 1156 512">
    <title>View under score icon</title>
    <g>
      <path class="st0" d="M162.9,330.8c28,2.5,51.4-20.9,48.9-48.9c-1.9-21.5-19.2-38.8-40.7-40.7c-28-2.5-51.4,20.9-48.9,48.9
        C124.1,311.6,141.4,328.9,162.9,330.8z M165,271.1c9.8-1.2,18.1,7,16.8,16.8c-0.8,6.7-6.2,12.1-12.9,12.9
        c-9.8,1.2-18.1-7-16.8-16.8C153,277.4,158.4,272,165,271.1z"/>
      <path class="st0" d="M197,120l150.6,0c7.7,0,14.5-5.6,15.3-13.3c1-9-6.1-16.7-14.9-16.7l-150.6,0c-7.7,0-14.5,5.6-15.3,13.3
        C181.1,112.3,188.2,120,197,120z"/>
      <path class="st0" d="M483,436.2V450c0,17.7-14.3,32-32,32H184c-17.7,0-32-14.3-32-32v-59.9c4.9,0.6,9.9,0.9,15,0.9
        c5.1,0,10.1-0.3,15-0.9l30-6.7c66.8-22.1,114.6-85.2,117-88.5c4-5.3,4-12.6,0-17.9c-2.4-3.2-50.2-66.4-117-88.5l-30-6.7
        c-4.9-0.6-9.9-0.9-15-0.9c-5.1,0-10.1,0.3-15,0.9V62c0-17.7,14.3-32,32-32h209v75c0,8.3,6.7,15,15,15h75v51.5h30V105
        c0-4.1-1.7-7.9-4.4-10.6l-90-90c0,0,0,0,0,0C415.9,1.7,412.1,0,408,0H159c-20.4,0-37,16.6-37,37v151.5C55,210.6,6.5,273.7,4,276.9
        C0,282.3,0,289.7,4,295.1c2.4,3.2,51,66.4,118,88.4V477c0,19.3,15.7,35,35,35h323c18.2,0,33-14.8,33-33v-42.8H483z M423,51.2
        L461.8,90H423V51.2z M35.5,286c19.1-21.7,72.1-75,131.5-75c59.4,0,111.8,53.4,130.6,75c-32.3,37.4-80.8,75-130.6,75
        C107.6,361,54.6,307.7,35.5,286z"/>
    </g>
    <g>
      <path d="M552,360l-119.3-52.5v-14.8L552,233.2V257l-89.5,42l89.5,37V360z"/>
    </g>
    <g>
      <path d="M652.7,382.6H624V267.3c0-13.8,0.3-24.7,1-32.7c-1.9,2-4.2,4.1-6.9,6.5s-11.9,9.8-27.4,22.5l-14.4-18.2l52.5-41.3h23.9
        V382.6z"/>
      <path d="M807.2,293.3c0,31-5,54-15,69.1S767,385,746.5,385c-19.9,0-34.9-7.8-45.2-23.3c-10.3-15.5-15.4-38.3-15.4-68.4
        c0-31.5,5-54.7,15-69.6s25.2-22.4,45.6-22.4c19.9,0,35,7.8,45.3,23.4S807.2,263.2,807.2,293.3z M715,293.3
        c0,24.3,2.5,41.7,7.5,52.1s13,15.6,24,15.6s19-5.3,24.1-15.9s7.6-27.9,7.6-51.9c0-23.9-2.5-41.2-7.6-51.9
        c-5.1-10.7-13.1-16.1-24.1-16.1s-19,5.2-24,15.7C717.5,251.6,715,269,715,293.3z"/>
      <path d="M939.8,293.3c0,31-5,54-15,69.1S899.6,385,879.1,385c-19.9,0-34.9-7.8-45.2-23.3s-15.4-38.3-15.4-68.4
        c0-31.5,5-54.7,15-69.6s25.2-22.4,45.6-22.4c19.9,0,35,7.8,45.3,23.4S939.8,263.2,939.8,293.3z M847.6,293.3
        c0,24.3,2.5,41.7,7.5,52.1s13,15.6,24,15.6s19-5.3,24.1-15.9s7.6-27.9,7.6-51.9c0-23.9-2.5-41.2-7.6-51.9
        c-5.1-10.7-13.1-16.1-24.1-16.1s-19,5.2-24,15.7C850.1,251.6,847.6,269,847.6,293.3z"/>
      <path d="M1039.5,257.3c0,18.7-3.4,32.8-10.1,42.2c-6.7,9.4-16.6,14.1-29.7,14.1c-12.4,0-22-4.9-28.7-14.6
        c-6.8-9.7-10.2-23.6-10.2-41.7c0-37.2,13-55.8,38.9-55.8c12.8,0,22.6,4.8,29.5,14.5C1036.1,225.7,1039.5,239.4,1039.5,257.3z
        M984.6,257.6c0,12.1,1.2,21.2,3.5,27.1c2.4,5.9,6.2,8.9,11.6,8.9c10.7,0,16.1-12,16.1-36s-5.4-36-16.1-36c-5.4,0-9.2,3-11.6,8.9
        C985.8,236.4,984.6,245.5,984.6,257.6z M1119.5,204.1l-99,178.5h-23.7l99-178.5H1119.5z M1155.8,328.9c0,18.7-3.4,32.8-10.1,42.1
        c-6.8,9.4-16.6,14-29.5,14c-12.4,0-22-4.8-28.8-14.5c-6.8-9.6-10.3-23.5-10.3-41.7c0-37.2,13-55.8,39.1-55.8
        c12.5,0,22.3,4.8,29.2,14.4C1152.3,297.1,1155.8,310.9,1155.8,328.9z M1100.8,328.9c0,12.1,1.2,21.2,3.6,27.2c2.4,6,6.3,9,11.7,9
        c10.7,0,16-12.1,16-36.3c0-23.8-5.3-35.8-16-35.8c-5.4,0-9.3,2.9-11.7,8.8S1100.8,316.7,1100.8,328.9z"/>
    </g>
  </symbol>

  <symbol id="icon-feedback" viewBox="0 0 576 512">
    <title>Send as a feedback icon</title>
    <path d="M240,64c-25.3,0-49.8,4-72.7,11.8c-21.5,7.3-40.6,17.7-56.8,30.8C80.5,130.9,64,162,64,194.2c0,18,5,35.5,15,51.9
    c10.2,17,25.6,32.6,44.6,45.1c15.3,10.1,25.9,25.9,28.7,44c0.2,1.3,0.4,2.6,0.5,3.9c0.3,2.2,3,3.2,4.6,1.6l0,0
    c12.1-12,28.3-18.7,45.2-18.7c2.7,0,5.4,0.2,8,0.5c9.7,1.2,19.6,1.8,29.4,1.8c25.3,0,49.8-4,72.7-11.8c21.5-7.3,40.6-17.7,56.8-30.8
    c30-24.3,46.6-55.4,46.6-87.6s-16.5-63.3-46.6-87.6c-16.2-13.1-35.3-23.5-56.8-30.8C289.8,68,265.3,64,240,64L240,64z M240,0L240,0
    c132.5,0,240,87,240,194.2S372.5,388.4,240,388.4c-10.1,0-20-0.5-29.8-1.5c-4.7-0.5-9.5,1.1-13,4.3c-48,44.7-102.5,54.6-157.3,56.5
    c-4.3,0.2-7.9-3.3-7.9-7.7v0c0-2.8,1.6-5.4,4.1-6.8c30.2-16,53.9-43.5,53.9-74.8c0-1.3,0-2.5-0.1-3.8c-0.2-5.7-3-10.9-7.6-14.2
    C31.9,305,0,252.6,0,194.2C0,87,107.5,0,240,0L240,0z M498,435.3c0,26.8,16.6,50.4,42.5,64.1c2.1,1.1,3.5,3.4,3.5,5.8l0,0
    c0,3.7-3.1,6.7-6.8,6.6c-46.6-1.6-89.8-9.9-130.7-47.1c-3.9-3.6-9.1-5.4-14.4-4.9c-7.9,0.7-16,1.1-24.1,1.1
    c-35.6,0-69.1-7.2-98.3-19.8c-8.1-3.5-6.3-15.5,2.6-16.3c60.7-5.8,117.1-27.9,161.4-63.8c26.1-21.1,46.7-45.9,61.2-73.7
    c15.4-29.4,23.2-60.8,23.2-93.2l0-0.2c0-5.9,7.1-8.8,11.3-4.7C558.5,218,576,254.6,576,294.5c0,49.2-26.7,93.5-69.2,123.9
    c-5.4,3.9-8.8,10.1-8.8,16.8C498,435.3,498,435.3,498,435.3z"/>
  </symbol>

  <symbol id="icon-complete" viewBox="0 0 24 24">
    <title>Send as a complete icon</title>
    <g>
      <path d="M12,15.5c-0.4,0-0.8-0.1-1.1-0.4l-3-3c-0.6-0.6-0.6-1.5,0-2.1c0.6-0.6,1.5-0.6,2.1,0l1.9,1.9l8.9-8.9
        c0.6-0.6,1.5-0.6,2.1,0c0.6,0.6,0.6,1.5,0,2.1l-10,10C12.8,15.4,12.4,15.5,12,15.5z"/>
    </g>
    <g>
      <path d="M19,22H5c-1.7,0-3-1.3-3-3V5c0-1.7,1.3-3,3-3h11c0.6,0,1,0.4,1,1s-0.4,1-1,1H5C4.4,4,4,4.4,4,5v14c0,0.6,0.4,1,1,1h14
        c0.6,0,1-0.4,1-1v-7c0-0.6,0.4-1,1-1s1,0.4,1,1v7C22,20.7,20.7,22,19,22z"/>
    </g>
  </symbol>

  <symbol id="icon-calendar" viewBox="0 0 24 24">
    <title>Calendar Icon</title>
    <g>
      <g>
        <path d="M19,23H5c-1.7,0-3-1.3-3-3V6c0-1.7,1.3-3,3-3h14c1.7,0,3,1.3,3,3v14C22,21.7,20.7,23,19,23z M5,5C4.4,5,4,5.4,4,6v14
          c0,0.6,0.4,1,1,1h14c0.6,0,1-0.4,1-1V6c0-0.6-0.4-1-1-1H5z"/>
      </g>
      <g>
        <path d="M16,7c-0.6,0-1-0.4-1-1V2c0-0.6,0.4-1,1-1s1,0.4,1,1v4C17,6.6,16.6,7,16,7z"/>
      </g>
      <g>
        <path d="M8,7C7.4,7,7,6.6,7,6V2c0-0.6,0.4-1,1-1s1,0.4,1,1v4C9,6.6,8.6,7,8,7z"/>
      </g>
      <g>
        <path d="M21,11H3c-0.6,0-1-0.4-1-1s0.4-1,1-1h18c0.6,0,1,0.4,1,1S21.6,11,21,11z"/>
      </g>
    </g>
  </symbol>

  <symbol id="icon-preview" viewBox="0 0 24 24">
    <title>Preview file icon</title>
    <g>
      <path d="M12,21c-7.5,0-11.7-8.2-11.9-8.6c-0.1-0.3-0.1-0.6,0-0.9C0.3,11.2,4.5,3,12,3s11.7,8.2,11.9,8.6c0.1,0.3,0.1,0.6,0,0.9
        C23.7,12.8,19.5,21,12,21z M2.1,12c0.9,1.6,4.5,7,9.9,7c5.4,0,8.9-5.4,9.9-7c-0.9-1.6-4.5-7-9.9-7C6.6,5,3.1,10.4,2.1,12z"/>
    </g>
    <g>
      <path d="M12,16c-2.2,0-4-1.8-4-4c0-2.2,1.8-4,4-4c2.2,0,4,1.8,4,4C16,14.2,14.2,16,12,16z M12,10c-1.1,0-2,0.9-2,2c0,1.1,0.9,2,2,2
        c1.1,0,2-0.9,2-2C14,10.9,13.1,10,12,10z"/>
    </g>
  </symbol>

  <symbol id="icon-edit" viewBox="0 0 500 500">
    <title>Edit file icon</title>
    <path d="M468.4,312.2c-17.2,0-31.1,13.9-31.1,31.1v77.6c0,8.6-7,15.5-15.5,15.5H80.1c-8.6,0-15.5-7-15.5-15.5V79.3
      c0-8.6,7-15.5,15.5-15.5h77.6c17.2,0,31.1-13.9,31.1-31.1S174.9,1.7,157.8,1.7H33.5C16.4,1.7,2.5,15.6,2.5,32.7v434.8
      c0,17.1,13.9,31.1,31.1,31.1h434.8c17.2,0,31.1-13.9,31.1-31.1V343.3C499.4,326.1,485.5,312.2,468.4,312.2z"/>
    <path d="M380.4,76.3l44.4,44.4L240.1,312.2h-51.2V261L380.4,76.3z M380.8,1.7c-7.9,0-15.9,3-21.9,9.1L126.7,234.6v139.7h139.8
      l223.9-232.1c12.1-12.1,12.1-31.7,0-43.8l-87.6-87.6C396.7,4.7,388.8,1.7,380.8,1.7L380.8,1.7L380.8,1.7z"/>
  </symbol>

  <symbol id="icon-expand" viewBox="0 0 24 24">
    <title>Open in a new window file icon</title>
    <g>
      <path d="M16.9,24H4c-1.9,0-3.5-1.6-3.5-3.6V7.3c0-2,1.6-3.6,3.5-3.6h7c0.6,0,1.2,0.5,1.2,1.2S11.7,6.1,11,6.1H4
        c-0.6,0-1.2,0.5-1.2,1.2v13.1c0,0.7,0.5,1.2,1.2,1.2h12.8c0.6,0,1.2-0.5,1.2-1.2v-7.2c0-0.7,0.5-1.2,1.2-1.2s1.2,0.5,1.2,1.2v7.2
        C20.4,22.4,18.8,24,16.9,24z"/>
    </g>
    <g>
      <path d="M22.7,9.7c-0.6,0-1.2-0.5-1.2-1.2v-6h-5.8c-0.6,0-1.2-0.5-1.2-1.2s0.5-1.2,1.2-1.2h7c0.6,0,1.2,0.5,1.2,1.2v7.2
        C23.9,9.2,23.3,9.7,22.7,9.7z"/>
    </g>
    <g>
      <path d="M9.9,15.6c-0.3,0-0.6-0.1-0.8-0.3c-0.5-0.5-0.5-1.2,0-1.7L21.9,0.5c0.5-0.5,1.2-0.5,1.7,0C24,1,24,1.7,23.5,2.2L10.7,15.3
        C10.4,15.5,10.2,15.6,9.9,15.6z"/>
    </g>
  </symbol>

  <symbol id="icon-minus" viewBox="0 0 19.9 2.9">
    <title>Minus icon</title>
    <rect x="0.1" y="0.1" width="17.7" height="2.7"/>
  </symbol>

  <symbol id="icon-plus" viewBox="0 0 18 17.9">
    <title>Plus icon</title>
    <rect x="0.2" y="7.6" width="17.7" height="2.7"/>
    <rect x="0.1" y="7.6" transform="matrix(5.133065e-14 1 -1 5.133065e-14 17.8626 1.648352e-02)" width="17.7" height="2.7"/>
  </symbol>

  <symbol id="icon-check" viewBox="0 0 18 17.9">
    <title>Check circle icon</title>
    <path d="M7,14.4l8.8-8.8l-1.4-1.4L7,11.6L3.5,8.1L2.1,9.5L7,14.4z M17.8,8.9c0,4.9-4,8.9-8.9,8.9s-8.9-4-8.9-8.9s4-8.9,8.9-8.9
	    S17.8,4,17.8,8.9z"/>
  </symbol>

  <symbol id="icon-submited" viewBox="0 0 614.5 512">
    <title>Submited icon</title>
    <g>
      <path d="M614.8,478.4c-0.4-17.9-6.6-33.7-19-46.6c-4.5-4.7-5.8-9.4-5.8-15.5c0.2-51.9,0.1-103.8,0.1-155.6c0-42,0.1-83.9-0.1-125.9
        c-0.1-16.5-11.4-29.2-27.3-29.5c-29.4-0.6-36.1-0.3-65.5-0.2c-7.4,0-12.4,5.2-11.6,11.3c1,6.9,5.5,9.7,12.3,9.7
        c26.2,0,29.6,0,55.8,0.1c13.6,0,15.4,1.8,15.4,15.8c0,81.6,0.1,163.2,0.1,244.8c0,8.4,0,16.7,0,23.4c-85.5-3.3-170-1.2-254.4-1.4
        c-84.5-0.3-169-0.1-254.9-0.1c0-3.6,0-6.8,0-9.9c0-32.7,0-65.4,0-98.1c0-53.3,0-106.7,0-160c0-12.9,1.6-14.4,14.7-14.5
        c24.8,0,28.6,0,53.3,0c7.1,0,12.3-3,12.3-10.5c0-7.5-5.1-10.6-12.2-10.6c-2,0-4.1,0-6.1,0c-22.7,0-24.5,0-47.2,0
        c-25.6,0-36.1,10.3-36,36.1c0.3,59.4,0.8,118.8,1,178.3c0.1,29.3-0.8,58.5-0.8,87.8c0,6.7-1.6,11-7.6,15.1
        C13,434.6,3.1,452.6,1.1,474.7c-2.1,22.8,11.4,37.3,34.4,37.3c74.3,0,255.2,0,334.5,0c2,0,4,0,6,0c1.9,0.1,4.1,0.5,5.6,0
        c11.4,0,22.8,0,34.2,0c55.4,0,110.7,0.1,166.1,0C602.5,512,615.3,498.9,614.8,478.4z M578.9,490.9c-39.6,0-471.7-0.1-541.6-0.2
        c-13.2,0-17.3-5.1-14.7-17.9c5.3-26.9,24.9-42.9,52.6-42.9c155.1,0,310.1,0,465.2,0c27.9,0,47.1,15.6,52.9,42.6
        C596,485.2,591.8,490.9,578.9,490.9z"/>
      <path d="M163.5,45c0-29.1,15.8-44.9,44.9-44.9c47.5-0.1,95,0.1,142.4-0.1c7.3,0,12.6,2.4,17.6,7.6c21.4,22.6,42,46.3,65.2,66.9
        c20.5,18.2,27.6,38,26.7,65.4c-2.1,65.8-0.6,131.7-0.7,197.5c0,26.8-16.8,43.7-43.6,43.8c-5.5,0-11-0.4-16.6-0.4
        c-63.8,0.1-127.6,0.3-191.3,0.4c-28.1,0-44.6-16.5-44.7-44.4c0-48.4,0-96.7,0-145.1C163.4,142.5,163.4,94.3,163.5,45z M398.9,116.6
        c-17.6,0.4-33.9-2.6-44.1-18.4c-4.6-7.2-8.5-16-9.2-24.4c-1.4-16.2-0.4-32.5-0.4-50.7c-7.5,0-14.3,0-21.1,0
        c-38.2,0-76.3,0.1-114.5,0.2c-17,0-22.7,5.6-22.7,22.4c0,96.7,0,193.4,0,290.1c0,16,6.1,22.2,22.2,22.3c68.4,0.1,136.9,0.1,205.3,0
        c15.5,0,21.6-6.3,21.6-21.8c0-69.9,0-139.8,0-209.7c0-2.9,0-5.7,0-9.9C422.7,116.6,410.8,116.3,398.9,116.6z M368.8,38.7
        c-1.1,0.3-2.2,0.5-3.3,0.8c1,14.4,1.1,29,3.2,43.3c1.2,7.9,8.5,11.8,16.3,12.1c11.6,0.4,23.2,0.1,37.8,0.1
        C403.6,74.9,386.2,56.8,368.8,38.7z"/>
    </g>
  </symbol>
</defs>




</svg>
